<svg xmlns="http://www.w3.org/2000/svg" viewBox="0 0 61.08 68.81"><defs><style>.cls-1{fill:none;stroke:#000;stroke-linecap:round;stroke-linejoin:round;stroke-width:1.11px;}</style></defs><title>AMbiente</title><g id="Layer_2" data-name="Layer 2"><g id="ICONES"><path class="cls-1" d="M21.52,68.26c0-13.18.19-22.29,4.05-28.72C31.65,29.4,39.42,32.1,51.25,21.29"/><path class="cls-1" d="M22.53,55.76c1.69-2,3.72-3,5.07-3S39.42,52,47.53,47.65,60,29.06,60.37,24.33s0-22.64,0-23.65-5.74,4.39-8.11,5.41-14.86,6.08-17.9,7.43-10.48,3-12.84,6.76a26.62,26.62,0,0,0-4.4,18.92,60.52,60.52,0,0,0,4.4,15.2"/><path class="cls-1" d="M26.58,36.5c0-3-.67-7.78-.33-8.45"/><path class="cls-1" d="M34.36,30.75c0-1.69,1.69-8.11,1.69-8.11"/><path class="cls-1" d="M45.17,25.35a29.39,29.39,0,0,0,0-5.75"/><path class="cls-1" d="M39.76,29.74c2.71,0,7.77,2.7,7.77,2.7"/><path class="cls-1" d="M25.23,41.9c4.06-1.69,12.84-3,12.84-3"/><path class="cls-1" d="M16.45,38.19C14.08,32.1,7,22.64,7,22.64"/><path class="cls-1" d="M12.73,30.41c.34-2.7.34-7.77.34-7.77"/><path class="cls-1" d="M11.72,31.09H6.31"/><path class="cls-1" d="M15.43,37.51c-1.69-.34-5.74.68-5.74.68"/><path class="cls-1" d="M18.47,48c-4-.67-13.17-3-15.2-9.12S1.58,28.05,1.58,24,.9,12.17.57,11.83,6.31,15.21,8,15.88s8.45,2,11.83,4.4"/></g></g></svg>