<svg xmlns="http://www.w3.org/2000/svg" viewBox="0 0 68.43 63.95"><defs><style>.cls-1{fill:none;stroke:#000;stroke-linecap:round;stroke-linejoin:round;stroke-width:1.11px;}</style></defs><title>Animal</title><g id="Layer_2" data-name="Layer 2"><g id="ICONES"><path class="cls-1" d="M53.67,18.8A8.16,8.16,0,0,1,54,21.16c0,1.36-.68,9.47-2,12.51s-3.72,8.78-4.39,10.47-.34,4.06-.34,6.08,1.69,3,1.69,5.41-3,5.07-5.07,5.07-4.73-2-8.79-2C31.7,58.67,30.35,60,28,60s-6.08-.34-6.08-5.07.67-8.78,0-11.48S15.82,33.33,15.49,31.3a60.57,60.57,0,0,1,0-11.15"/><path class="cls-1" d="M41.17,60.36c-1.69,1-4.06,3-6.09,3s-5.4-2.36-6.42-3"/><path class="cls-1" d="M24.61,51.24a8.21,8.21,0,0,1,4.05-1.35A4.35,4.35,0,0,0,31,49.55c.67-.34,1.69-2.37,4-2.37s3.72,1.69,4.4,2,1,1,2,1,4.4,0,5.07.34"/><path class="cls-1" d="M18.53,21.5c2,0,7.77,3.72,7.77,5.07"/><path class="cls-1" d="M26.3,28.94c1.86,1.85,1.86,12.67,0,14.53"/><path class="cls-1" d="M45.22,20.15c-2,2-5.41,5.41-5.41,12.84"/><path class="cls-1" d="M41.17,44.48c-1-1.35-2.37-6.42-1.69-8.11"/><path class="cls-1" d="M17.51,29.61a2.92,2.92,0,0,1,4.4-.34"/><circle cx="20.89" cy="30.96" r="1.35"/><path class="cls-1" d="M51.13,29.78a2.91,2.91,0,0,0-4.39-.34"/><circle cx="47.75" cy="31.13" r="1.35"/><path class="cls-1" d="M5.69,19.48a19.15,19.15,0,0,1,8.78,0c2,.67-.67,2-2.7,3S4.54,24.75.62,20.83c-.68-.68,4.05-4.4,7.09-4.73s3.72-.68,6.09-.34"/><path class="cls-1" d="M54,22.38c1,1.83,7.39,1.33,8.44,1.15,2-.34,5.07-4.73,5.41-5.41s-3.72-2-6.08-2-5.41-.34-6.76,0"/><path class="cls-1" d="M19.54,15.42c1.69-1.69,2-3.72,1-3.72s-3.71-1-6.42-3S7.71.55,7.71.55A44.69,44.69,0,0,0,8.39,8c.68,2.7,4.73,7.43,7.77,9.12C17.62,17.92,19.54,15.42,19.54,15.42Z"/><path class="cls-1" d="M49.51,15.42c-1.69-1.69-2-3.72-1-3.72s3.72-1,6.42-3S61.33.55,61.33.55A44.29,44.29,0,0,1,60.66,8c-.68,2.7-4.73,7.43-7.77,9.12C51.42,17.92,49.51,15.42,49.51,15.42Z"/><path class="cls-1" d="M20.55,11.7a7.3,7.3,0,0,1,4.73-2h19.6c1.35,0,3.38,1,3.72,2"/><circle class="cls-1" cx="27.65" cy="54.95" r="2.03"/><circle class="cls-1" cx="43.19" cy="54.95" r="2.03"/><path class="cls-1" d="M54,19.57c1.35-.77,6.08-.77,6.08-.77"/></g></g></svg>