<svg xmlns="http://www.w3.org/2000/svg" viewBox="0 0 40.05 38.22"><defs><style>.cls-1{fill:none;}.cls-1,.cls-2,.cls-3,.cls-4,.cls-5{stroke:#000;}.cls-1,.cls-2,.cls-3,.cls-4{stroke-miterlimit:10;}.cls-1,.cls-4,.cls-5{stroke-width:0.75px;}.cls-2,.cls-3,.cls-4,.cls-5{fill:#fff;}.cls-2{stroke-width:0.25px;}.cls-3{stroke-width:0.5px;}.cls-5{stroke-linecap:round;stroke-linejoin:round;}</style></defs><title>ASSINATURA</title><g id="Layer_2" data-name="Layer 2"><g id="ICONES"><g id="Menu"><g id="ASSINATURA"><g id="Caixa"><path class="cls-1" d="M.38,14.63c0,1.12,1.2,20.81,2,21.21,4.4.81,25.21,2,26,2S38.8,32.64,38.8,31.44c0-1.65,1.2-19.21.8-19.61s-8.81,5.2-10,5.2c-.4,0-29.21-1.6-29.21-2.4S10,9.43,10,9.43l29.62,2.4"/><path class="cls-1" d="M28.39,37.85s1.2-18.41,1.2-20.82"/></g><g id="Brocoli"><path class="cls-2" d="M35.32,13.62c.12-1.58.58-3.78,1.27-4.48,1.16-1.15-.79-.53-.79-.53l-.75,2.29-.16-2.08-.25-.21-.39.32,0,2.29-.89-2.08h-.53l.46,2.3-1.35-2-.8-.09L32.6,12.6a8.77,8.77,0,0,1,.48,2.3"/><path class="cls-3" d="M36.67,8.36c.26-.24,2.22-.23,1.53-.88s1,.07,1-1.09-.76-1.27-1.09-1.57,0-.69-.87-1.51A1.17,1.17,0,0,0,35.72,3c-.14,0-.72-.89-1.38-.89s-.73.48-1.09.48-.62-.51-1.09-.07-.36.89-.58.89a3,3,0,0,0-1.89.75c-.73.68-.08,1.57-.15,1.78S28.31,7.41,29,8a4.13,4.13,0,0,0,1.75.75c.21.14-.44,1,.72,1s2.07-1.19,2.43-1.19,1.28.85,1.79.85S36.38,8.64,36.67,8.36Z"/></g><g id="Garrafa"><path class="cls-4" d="M14.41,3.7,14.73.93c.43-.22,4.1-.35,4.27,0A27.1,27.1,0,0,1,18.89,4"/><path class="cls-4" d="M21.13,16.18s1.07-11.09.22-11.52C19.47,3.72,12.5,3.25,11,4.45c-.53.43-.32,11-.32,11"/><path class="cls-4" d="M19,16.13s.6-8.56.12-8.88c-1.06-.73-5-1.1-5.83-.17-.3.33-.18,8.47-.18,8.47"/></g><path class="cls-4" d="M4.07,14.9a3.37,3.37,0,0,1-.22-1.38c0-2.33,4.18-2.78,6.51-2.78s4.48,2.69,4.48,5"/><g id="Pão"><path class="cls-4" d="M14.84,15.76S25.88-1.8,28.28.6s-5,15.8-5,15.8"/><path class="cls-5" d="M22,10.58c.59-.15,3.31,1.64,3.27,1.77"/><path class="cls-5" d="M23.53,8.66a11.67,11.67,0,0,1,2.68,1.58"/><path class="cls-5" d="M25.24,7.17a6.88,6.88,0,0,1,2,1"/></g><path class="cls-5" d="M31.91,15.44s-.11-5.23-.32-5.66c-.31-.61-5.39-.16-6,.43V16.4"/></g></g></g></g></svg>