<svg xmlns="http://www.w3.org/2000/svg" viewBox="0 0 39.18 24.33">
   <defs>
      <style>.cls-1{fill:none;stroke:#000;stroke-linecap:round;stroke-linejoin:round;stroke-width:0.75px;}</style>
   </defs>
   <title>CESTA</title>
   <g id="Layer_2" data-name="Layer 2">
      <g id="ICONES">
         <g id="Menu">
            <g id="CESTA">
               <path class="cls-1" d="M2.52,5.9H36.3c2,0,2.51-2.33,2.51-3.22S38.63.53,36.66.53,6.45.18,4.84.53.38,1.07.38,3.22A2.86,2.86,0,0,0,2.52,5.9Z"/>
               <circle class="cls-1" cx="19.68" cy="3.22" r="1.61"/>
               <path class="cls-1" d="M2.7,6.25c0,2.51,2.23,14.93,3.22,15.91S7.53,24,8.24,24H29.87a2.86,2.86,0,0,0,2.5-1.79C32.91,21.09,37,7.51,37,6.25"/>
               <path class="cls-1" d="M9,9.83a1.8,1.8,0,0,1,2.68.71c.53.9,2.86,7,2.86,8.23a2.53,2.53,0,0,1-2.33,2.5c-1.25,0-2.5-2.32-2.86-3.58S7.53,11.8,7.7,11.08A2.16,2.16,0,0,1,9,9.83Z"/>
               <path class="cls-1" d="M19.68,8.94c1.61,0,2,.53,2,1.25s.35,9.11,0,9.65-.72,1.25-1.79,1.25a2.9,2.9,0,0,1-2.32-1.61c-.18-.71,0-8,0-8.94S18.07,8.94,19.68,8.94Z"/>
               <path class="cls-1" d="M29.33,9.83c1.43,0,1.61,2.14,1.61,3.75s-2,6.26-3,7A1.77,1.77,0,0,1,25,19a37.49,37.49,0,0,1,2.68-8.23A1.69,1.69,0,0,1,29.33,9.83Z"/>
            </g>
         </g>
      </g>
   </g>
</svg>