<svg xmlns="http://www.w3.org/2000/svg" viewBox="0 0 65.98 59.22"><defs><style>.cls-1{fill:none;stroke:#000;stroke-linecap:round;stroke-linejoin:round;stroke-width:1.11px;}</style></defs><title>Saude</title><g id="Layer_2" data-name="Layer 2"><g id="ICONES"><path class="cls-1" d="M.55,29.27H11.7s5.41-13.85,6.09-13.85,3.71,17.23,4.39,17.23,4.39-12.16,4.73-12.16,2,9.8,2.7,9.8,1-5.41,1.69-5.41H42.11s2-8.45,2.71-8.45,2,12.51,2.36,12.51,3-8.45,3.38-8.45,1.69,6.08,2,6.08l12.84-.34"/><path class="cls-1" d="M3.59,23.87c-1.85-1.86-3-9.8-2-13.86S9.38,1.29,11.37.89c1.69-.34,8.78-1,12.84,1.69S32,10,32.31,10s5.75-5.4,7.44-6.42a26.24,26.24,0,0,1,12.5-3C58.33.55,62.39,7.65,63.06,9c.55,1.09.68,9.8-.67,11.15"/><path class="cls-1" d="M10.35,35c1,1,21,23.65,21.63,23.65S56.31,32.65,56.31,31"/></g></g></svg>