<svg xmlns="http://www.w3.org/2000/svg" viewBox="0 0 36.75 35.98"><defs><style>.cls-1{fill:none;stroke:#000;stroke-linecap:round;stroke-linejoin:round;stroke-width:0.75px;}</style></defs><title>USUARIO</title><g id="Layer_2" data-name="Layer 2"><g id="ICONES"><g id="Menu"><g id="USUARIO"><path class="cls-1" d="M18.43,19.69c2.5,0,5.36-2.32,6.08-3.39a17.33,17.33,0,0,0,2-8c0-3.57-2.5-6.79-4.82-7.5a12.82,12.82,0,0,0-8.23.71c-1.25.72-3.21,4.83-2.68,9.48C11.15,14.49,14.32,19.69,18.43,19.69Z"/><path class="cls-1" d="M13.25,17.73a5.57,5.57,0,0,1-1.43,3.93,11.92,11.92,0,0,1-6.08,2.5c-2,0-5.36,2.86-5.36,6.08s1.43,4.83,2.5,4.83,28.42.53,30.21.53,3.21-2.5,3.21-3.21A7.52,7.52,0,0,0,35.05,27a7.65,7.65,0,0,0-3.75-3.21c-2.32-.72-5.1-.63-6.44-2s-1.07-3.22-1.07-4.29"/></g></g></g></g></svg>